<?xml version="1.0" standalone="no"?>
<svg
  width="600"
  height="600"
  viewBox="0 0 600 600"
  xmlns="http://www.w3.org/2000/svg"
>
  <g transform="translate(300,300)">
    <path d="M81.2,-133.3C107.5,-109.3,132.9,-90.8,160.6,-63.5C188.3,-36.3,218.4,-0.3,218.2,34.5C218,69.2,187.6,102.7,157.2,134.3C126.9,166,96.5,195.7,60,208.2C23.5,220.7,-19.3,215.9,-63.4,207C-107.6,198.1,-153.2,185.2,-188.2,156.5C-223.2,127.9,-247.7,83.5,-254.9,36.4C-262.1,-10.7,-252,-60.6,-222.2,-91.3C-192.3,-121.9,-142.6,-133.3,-102.3,-150.9C-62,-168.5,-31,-192.2,-1.8,-189.4C27.4,-186.6,54.8,-157.2,81.2,-133.3Z" fill="#fcb900" />
  </g>
</svg>
  