<?xml version="1.0" standalone="no"?>
<svg
  width="600"
  height="600"
  viewBox="0 0 600 600"
  xmlns="http://www.w3.org/2000/svg"
>
  <g transform="translate(300,300)">
    <path d="M106.3,-187.9C115,-159.9,83.4,-91.8,107.7,-46.8C131.9,-1.8,211.9,20.1,215,34.2C218.1,48.3,144.2,54.6,98.2,56.6C52.1,58.5,33.9,56.1,8.6,92.3C-16.7,128.6,-49.2,203.4,-59.9,201.4C-70.6,199.5,-59.5,120.7,-90.1,80.7C-120.7,40.7,-193,39.4,-208,21.9C-222.9,4.4,-180.6,-29.4,-145,-49.2C-109.5,-69,-80.7,-74.9,-57.6,-96.4C-34.6,-117.8,-17.3,-154.9,15.8,-179.5C48.8,-204,97.7,-216,106.3,-187.9Z" fill="#f9f9f0" />
  </g>
</svg>
  