<?xml version="1.0" encoding="utf-8"?>
<!-- Generator: Adobe Illustrator 19.0.0, SVG Export Plug-In . SVG Version: 6.00 Build 0)  -->
<svg version="1.1" id="Layer_1" xmlns="http://www.w3.org/2000/svg" xmlns:xlink="http://www.w3.org/1999/xlink" x="0px" y="0px"
	 viewBox="0 0 400 400" style="enable-background:new 0 0 400 400;" xml:space="preserve">
<style type="text/css">
	.st0{opacity:0.35;fill:#4B1329;}
	.st1{fill:#4B1329;}
	.st2{opacity:0.7;fill:url(#XMLID_81_);}
	.st3{fill:url(#XMLID_83_);}
	.st4{fill:url(#XMLID_84_);}
	.st5{fill:url(#XMLID_85_);}
	.st6{fill:url(#XMLID_86_);}
	.st7{fill:url(#XMLID_88_);}
	.st8{fill:#EC9723;}
	.st9{fill:url(#XMLID_89_);}
	.st10{fill:url(#XMLID_90_);}
	.st11{fill:url(#XMLID_91_);stroke:#000000;stroke-width:0.6108;stroke-miterlimit:10;}
	.st12{fill:url(#XMLID_92_);}
	.st13{fill:url(#XMLID_94_);}
	.st14{fill:url(#XMLID_95_);}
	.st15{fill:url(#XMLID_96_);}
	.st16{fill:url(#XMLID_98_);}
	.st17{fill:#0F1133;}
	.st18{fill:url(#XMLID_99_);}
	.st19{fill:url(#XMLID_100_);}
	.st20{fill:url(#XMLID_102_);}
	.st21{fill:url(#XMLID_103_);}
	.st22{fill:url(#XMLID_104_);}
	.st23{fill:url(#XMLID_106_);}
	.st24{fill:url(#XMLID_107_);}
	.st25{fill:url(#XMLID_108_);}
	.st26{fill:url(#XMLID_109_);}
	.st27{fill:#7AD0E5;}
	.st28{fill:#8FCA71;}
	.st29{fill:url(#XMLID_110_);}
	.st30{fill:url(#XMLID_111_);}
	.st31{fill:url(#XMLID_112_);}
	.st32{fill:url(#XMLID_113_);}
	.st33{fill:url(#XMLID_114_);}
	.st34{fill:url(#XMLID_115_);}
	.st35{fill:url(#XMLID_116_);}
</style>
<ellipse id="XMLID_3_" class="st0" cx="200" cy="200" rx="103.4" ry="101"/>
<g id="XMLID_63_">
	<path id="XMLID_1_" class="st1" d="M104.5,126.1c29.6-35.8,13.1-66.5,34.6-77.5c30.4-15.5,65,44.5,132.5,38.9
		c19.5-1.6,32.5-8,40.2,0c14,14.4-15.3,48.4,0,75.5c12,21.2,38.9,14.7,43.7,31c6.4,21.7-40.6,35.9-49.8,80.2
		c-6.9,33.6,14.9,49.8,2.9,65.8c-14.7,19.4-64.6,18.4-97.8-1.7c-19.5-11.8-26.8-26.3-43.5-25.2c-14.1,1-16.6,12-34.9,21.4
		c-15.6,8-49.3,18.1-70.6,0c-18.9-16.1-21.3-48.7-9.5-67.7c11-17.7,29-15.1,32-28c5-21.5-43-37.7-40.6-62.3
		C45.9,156.5,78.1,158.1,104.5,126.1z"/>
	<g id="XMLID_13_">
		<g id="XMLID_64_">
			
				<linearGradient id="XMLID_81_" gradientUnits="userSpaceOnUse" x1="188.9949" y1="185.1768" x2="287.6445" y2="185.1768" gradientTransform="matrix(4.489659e-011 -1 1 4.489659e-011 15.9386 438.4091)">
				<stop  offset="0" style="stop-color:#253678"/>
				<stop  offset="1" style="stop-color:#05183B"/>
			</linearGradient>
			<path id="XMLID_59_" class="st2" d="M178.6,164.3v14.2c-1.7,0-3.4,0.5-4.9,1.4l-2.5,1.6c-0.3,0.2-0.5,0.6-0.5,1
				c0,0.3,0.1,0.6,0.3,0.8c0.2,0.2,0.5,0.3,0.8,0.3h6.8v53.9c0,4.8,3.3,8.9,7.9,10l2.7,0.6c3.9,0.9,7.9,1.3,11.8,1.3
				c4,0,8-0.4,11.8-1.3l2.7-0.6c4.6-1.1,7.9-5.2,7.9-10v-53.9h6.8c0.3,0,0.6-0.1,0.8-0.3c0.2-0.2,0.3-0.5,0.3-0.8
				c0-0.4-0.2-0.8-0.5-1l-2.5-1.6c-1.5-0.9-3.2-1.4-4.9-1.4v-14.2c0-7.5-6-13.5-13.5-13.5h-18C184.6,150.8,178.6,156.8,178.6,164.3z
				"/>
			<g id="XMLID_105_">
				
					<radialGradient id="XMLID_83_" cx="195.001" cy="201.9155" r="1.4732" gradientTransform="matrix(-0.6398 -0.7686 1.9063 -1.5867 -42.2954 713.6688)" gradientUnits="userSpaceOnUse">
					<stop  offset="0" style="stop-color:#EE3247"/>
					<stop  offset="1" style="stop-color:#841438"/>
				</radialGradient>
				<path id="XMLID_58_" class="st3" d="M214.6,244.9l5.3-5.3c0.1-0.1,0.3,0,0.3,0.1c0,2.8-1.9,5.2-4.7,5.9l-0.5,0.1
					C214.5,245.8,214.2,245.2,214.6,244.9z"/>
				
					<radialGradient id="XMLID_84_" cx="195.1643" cy="166.4293" r="1.6234" gradientTransform="matrix(0.6288 -0.7775 1.7091 1.3822 -224.8024 164.955)" gradientUnits="userSpaceOnUse">
					<stop  offset="0" style="stop-color:#EE3247"/>
					<stop  offset="1" style="stop-color:#841438"/>
				</radialGradient>
				<path id="XMLID_57_" class="st4" d="M180.5,239.6l5.3,5.3c0.4,0.4,0,0.9-0.5,0.8l-0.5-0.1c-2.7-0.6-4.7-3.1-4.7-5.9
					C180.2,239.5,180.4,239.5,180.5,239.6z"/>
				
					<linearGradient id="XMLID_85_" gradientUnits="userSpaceOnUse" x1="282.8753" y1="184.2308" x2="284.7014" y2="184.2308" gradientTransform="matrix(4.489659e-011 -1 1 4.489659e-011 15.9386 438.4091)">
					<stop  offset="0" style="stop-color:#253678"/>
					<stop  offset="1" style="stop-color:#05183B"/>
				</linearGradient>
				<path id="XMLID_56_" class="st5" d="M200.2,154h5.2c0.6,0,1.1,0.5,1.1,1.1s-0.5,1.1-1.1,1.1h-5.2H195c-0.6,0-1.1-0.5-1.1-1.1
					s0.5-1.1,1.1-1.1H200.2z"/>
				
					<radialGradient id="XMLID_86_" cx="279.3303" cy="198.6054" r="4.2554" gradientTransform="matrix(0.6012 -0.7991 1.71 1.2865 -292.9963 126.7867)" gradientUnits="userSpaceOnUse">
					<stop  offset="0" style="stop-color:#FFFFFF"/>
					<stop  offset="0.1191" style="stop-color:#FBFEFE"/>
					<stop  offset="0.2438" style="stop-color:#EEFAFB"/>
					<stop  offset="0.3712" style="stop-color:#D9F4F6"/>
					<stop  offset="0.5005" style="stop-color:#BCEBEE"/>
					<stop  offset="0.6312" style="stop-color:#96DFE5"/>
					<stop  offset="0.7631" style="stop-color:#68D1DA"/>
					<stop  offset="0.8934" style="stop-color:#32C1CC"/>
					<stop  offset="1" style="stop-color:#00B2C0"/>
				</radialGradient>
				<path id="XMLID_55_" class="st6" d="M209.6,155.5c0-1,0.9-1.7,1.8-1.5c4.4,0.8,7.8,4.2,8.7,8.5c0.2,0.8-0.5,1.6-1.3,1.6h0
					c-0.9,0-1.8-0.4-2.4-1l-1.4-1.4c-0.7-0.7-1.7-1.1-2.7-1.1c-0.7,0-1.4-0.3-1.9-0.8c-0.5-0.5-0.8-1.2-0.8-1.9V155.5z"/>
				
					<radialGradient id="XMLID_88_" cx="279.3303" cy="169.514" r="4.5725" gradientTransform="matrix(-0.5688 -0.8225 1.7778 -1.2296 42.9757 597.2516)" gradientUnits="userSpaceOnUse">
					<stop  offset="0" style="stop-color:#FFFFFF"/>
					<stop  offset="9.548178e-002" style="stop-color:#F9FDFE"/>
					<stop  offset="0.2199" style="stop-color:#E9F8FA"/>
					<stop  offset="0.3603" style="stop-color:#CEF0F3"/>
					<stop  offset="0.5124" style="stop-color:#A8E5EA"/>
					<stop  offset="0.6741" style="stop-color:#78D6DE"/>
					<stop  offset="0.8409" style="stop-color:#3EC5CF"/>
					<stop  offset="1" style="stop-color:#00B2C0"/>
				</radialGradient>
				<path id="XMLID_54_" class="st7" d="M188.9,154c0.9-0.2,1.8,0.6,1.8,1.5v2.4c0,0.7-0.3,1.4-0.8,1.9c-0.5,0.5-1.2,0.8-1.9,0.8
					c-1,0-2,0.4-2.7,1.1l-1.4,1.4c-0.6,0.6-1.5,1-2.4,1h0c-0.9,0-1.5-0.8-1.3-1.6C181.1,158.2,184.6,154.8,188.9,154z"/>
				<path id="XMLID_53_" class="st8" d="M219.3,188.4c0.1-0.5,0.8-0.4,0.8,0.1V234c0,0.5-0.7,0.6-0.8,0.1l-4-7.8
					c-0.1-0.5-0.2-7.3-0.2-7.8v-15.6c0-0.6,0.1-1.1,0.3-1.7L219.3,188.4z"/>
				<linearGradient id="XMLID_89_" gradientUnits="userSpaceOnUse" x1="180.1994" y1="211.2637" x2="185.2141" y2="211.2637">
					<stop  offset="0" style="stop-color:#FFF33B"/>
					<stop  offset="5.948725e-002" style="stop-color:#FFE029"/>
					<stop  offset="0.1303" style="stop-color:#FFD218"/>
					<stop  offset="0.2032" style="stop-color:#FEC90F"/>
					<stop  offset="0.2809" style="stop-color:#FDC70C"/>
					<stop  offset="0.6685" style="stop-color:#F3903F"/>
					<stop  offset="0.8876" style="stop-color:#ED683C"/>
					<stop  offset="1" style="stop-color:#E93E3A"/>
				</linearGradient>
				<path id="XMLID_52_" class="st9" d="M180.2,188.5c0-0.5,0.7-0.6,0.8-0.1l4,12.9c0.2,0.5,0.3,1.1,0.3,1.7v21.8
					c0,0.5-0.1,1-0.2,1.6l-4,7.8c-0.1,0.5-0.8,0.4-0.8-0.1V188.5z"/>
				<linearGradient id="XMLID_90_" gradientUnits="userSpaceOnUse" x1="181.4365" y1="183.5482" x2="218.9001" y2="183.5482">
					<stop  offset="0" style="stop-color:#FFF33B"/>
					<stop  offset="5.948725e-002" style="stop-color:#FFE029"/>
					<stop  offset="0.1303" style="stop-color:#FFD218"/>
					<stop  offset="0.2032" style="stop-color:#FEC90F"/>
					<stop  offset="0.2809" style="stop-color:#FDC70C"/>
					<stop  offset="0.6685" style="stop-color:#F3903F"/>
					<stop  offset="0.8876" style="stop-color:#ED683C"/>
					<stop  offset="1" style="stop-color:#E93E3A"/>
				</linearGradient>
				<path id="XMLID_51_" class="st10" d="M192.7,174.1c5-0.8,10-0.8,15,0l6.5,1c0.2,0,0.4,0.1,0.6,0.1c3,0.8,4.8,3.9,3.9,7l-2.5,8.4
					c-0.5,1.6-1.8,2.7-3.3,2.9c-0.3,0-0.6,0.1-1,0l-8.5-0.7c-2.1-0.2-4.3-0.2-6.5,0l-8.5,0.7c-0.3,0-0.7,0-1,0
					c-1.6-0.2-2.9-1.3-3.3-2.9l-2.5-8.4c-0.9-3,0.9-6.2,3.9-7c0.2-0.1,0.4-0.1,0.6-0.1L192.7,174.1z"/>
				<linearGradient id="XMLID_91_" gradientUnits="userSpaceOnUse" x1="187.4557" y1="210.4195" x2="212.8831" y2="210.4195">
					<stop  offset="0" style="stop-color:#FFF33B"/>
					<stop  offset="5.948725e-002" style="stop-color:#FFE029"/>
					<stop  offset="0.1303" style="stop-color:#FFD218"/>
					<stop  offset="0.2032" style="stop-color:#FEC90F"/>
					<stop  offset="0.2809" style="stop-color:#FDC70C"/>
					<stop  offset="0.6685" style="stop-color:#F3903F"/>
					<stop  offset="0.8876" style="stop-color:#ED683C"/>
					<stop  offset="1" style="stop-color:#E93E3A"/>
				</linearGradient>
				<path id="XMLID_50_" class="st11" d="M196.9,192.8c2.1-0.2,4.3-0.2,6.5,0l8.5,0.7c0.3,0,0.7,0,1,0v34.6c-0.7-0.9-1.8-1.4-3-1.3
					l-7.1,0.6c-1.8,0.2-3.6,0.2-5.4,0l-7.1-0.6c-1.2-0.1-2.3,0.4-3,1.3v-34.6c0.3,0,0.6,0.1,1,0L196.9,192.8z"/>
				<linearGradient id="XMLID_92_" gradientUnits="userSpaceOnUse" x1="184.6168" y1="235.1874" x2="215.722" y2="235.1874">
					<stop  offset="0" style="stop-color:#FFF33B"/>
					<stop  offset="5.948725e-002" style="stop-color:#FFE029"/>
					<stop  offset="0.1303" style="stop-color:#FFD218"/>
					<stop  offset="0.2032" style="stop-color:#FEC90F"/>
					<stop  offset="0.2809" style="stop-color:#FDC70C"/>
					<stop  offset="0.6685" style="stop-color:#F3903F"/>
					<stop  offset="0.8876" style="stop-color:#ED683C"/>
					<stop  offset="1" style="stop-color:#E93E3A"/>
				</linearGradient>
				<path id="XMLID_49_" class="st12" d="M187.5,228.2c0.7-0.9,1.8-1.4,3-1.3l7.1,0.6c1.8,0.2,3.6,0.2,5.4,0l7.1-0.6
					c1.2-0.1,2.3,0.4,3,1.3c0.3,0.3,0.5,0.7,0.6,1.2l2,7c0.8,2.7-1,5.5-3.8,5.9l-5.4,0.8c-2.1,0.3-4.1,0.5-6.2,0.5
					c-2.1,0-4.1-0.2-6.2-0.5l-5.4-0.8c-2.8-0.4-4.6-3.2-3.8-5.9l2-7C187,228.9,187.2,228.5,187.5,228.2z"/>
				
					<linearGradient id="XMLID_94_" gradientUnits="userSpaceOnUse" x1="256.5252" y1="206.7681" x2="256.5252" y2="214.3542" gradientTransform="matrix(4.489659e-011 -1 1 4.489659e-011 15.9386 438.4091)">
					<stop  offset="0" style="stop-color:#253678"/>
					<stop  offset="1" style="stop-color:#00B2C0"/>
				</linearGradient>
				<path id="XMLID_48_" class="st13" d="M222.7,184.5v-5.2c1.7,0,3.4,0.5,4.9,1.4l2.5,1.6c0.3,0.2,0.5,0.6,0.5,1
					c0,0.3-0.1,0.6-0.3,0.8c-0.2,0.2-0.5,0.3-0.8,0.3H222.7z"/>
				
					<linearGradient id="XMLID_95_" gradientUnits="userSpaceOnUse" x1="256.5252" y1="161.7004" x2="256.5252" y2="153.847" gradientTransform="matrix(4.489659e-011 -1 1 4.489659e-011 15.9386 438.4091)">
					<stop  offset="0" style="stop-color:#253678"/>
					<stop  offset="1" style="stop-color:#00B2C0"/>
				</linearGradient>
				<path id="XMLID_47_" class="st14" d="M177.7,179.3v5.2h-6.8c-0.3,0-0.6-0.1-0.8-0.3s-0.3-0.5-0.3-0.8c0-0.4,0.2-0.8,0.5-1
					l2.5-1.6C174.2,179.8,175.9,179.3,177.7,179.3z"/>
				
					<linearGradient id="XMLID_96_" gradientUnits="userSpaceOnUse" x1="277.8685" y1="184.2308" x2="260.4595" y2="184.2308" gradientTransform="matrix(4.489659e-011 -1 1 4.489659e-011 15.9386 438.4091)">
					<stop  offset="0" style="stop-color:#253678"/>
					<stop  offset="1" style="stop-color:#00B2C0"/>
				</linearGradient>
				<path id="XMLID_46_" class="st15" d="M200.2,165.1h7.9c3.7,0,6.7,3,6.7,6.7v3.4c-0.2-0.1-0.4-0.1-0.6-0.1l-6.5-1
					c-5-0.8-10-0.8-15,0l-6.5,1c-0.2,0-0.4,0.1-0.6,0.1v-3.4c0-3.7,3-6.7,6.7-6.7H200.2z"/>
				<path id="XMLID_41_" class="st1" d="M200.2,151.6h9c7.5,0,13.5,6,13.5,13.5v14.2v5.2v53.9c0,4.8-3.3,8.9-7.9,10l-2.7,0.6
					c-3.9,0.9-7.9,1.3-11.8,1.3v-6.7v0c2.1,0,4.2-0.2,6.2-0.5l5.4-0.8c2.8-0.4,4.6-3.2,3.8-5.9l-2-7c-0.1-0.4-0.3-0.8-0.6-1.2v-34.6
					c1.6-0.2,2.9-1.3,3.3-2.9l2.5-8.4c0.9-3-0.9-6.2-3.9-7v-3.4c0-3.7-3-6.7-6.7-6.7h-7.9v-9h5.2c0.6,0,1.1-0.5,1.1-1.1
					s-0.5-1.1-1.1-1.1h-5.2V151.6z M211.4,154c-0.9-0.2-1.8,0.6-1.8,1.5v2.4c0,0.7,0.3,1.4,0.8,1.9c0.5,0.5,1.2,0.8,1.9,0.8
					c1,0,2,0.4,2.7,1.1l1.4,1.4c0.6,0.6,1.5,1,2.4,1h0c0.9,0,1.5-0.8,1.3-1.6C219.2,158.2,215.8,154.8,211.4,154z M220.1,188.5
					c0-0.5-0.7-0.6-0.8-0.1l-3.9,12.9c-0.2,0.5-0.3,1.1-0.3,1.7v15.6c0,0.5,0.1,7.3,0.2,7.8l4,7.8c0.1,0.5,0.8,0.4,0.8-0.1V188.5z
					 M220.1,239.7c0-0.2-0.2-0.3-0.3-0.1l-5.3,5.3c-0.4,0.4,0,0.9,0.5,0.8l0.5-0.1C218.2,245,220.1,242.5,220.1,239.7z"/>
				<path id="XMLID_36_" class="st1" d="M191.1,151.6h9v2.4H195c-0.6,0-1.1,0.5-1.1,1.1s0.5,1.1,1.1,1.1h5.2v9h-7.9
					c-3.7,0-6.7,3-6.7,6.7v3.4c-3,0.8-4.8,3.9-3.9,7l2.5,8.4c0.5,1.6,1.8,2.7,3.3,2.9v34.6c-0.3,0.3-0.5,0.7-0.6,1.2l-2,7
					c-0.8,2.7,1,5.5,3.8,5.9l5.4,0.8c2.1,0.3,4.1,0.5,6.2,0.5v0v6.7c-4,0-8-0.4-11.8-1.3l-2.7-0.6c-4.6-1.1-7.9-5.2-7.9-10v-53.9
					v-5.2v-14.2C177.7,157.6,183.7,151.6,191.1,151.6z M190.7,155.5c0-1-0.9-1.7-1.8-1.5c-4.4,0.8-7.8,4.2-8.8,8.5
					c-0.2,0.8,0.5,1.6,1.3,1.6h0c0.9,0,1.8-0.4,2.4-1l1.4-1.4c0.7-0.7,1.7-1.1,2.7-1.1c0.7,0,1.4-0.3,1.9-0.8
					c0.5-0.5,0.8-1.2,0.8-1.9V155.5z M181,188.4c-0.1-0.5-0.8-0.4-0.8,0.1V234c0,0.5,0.7,0.6,0.8,0.1l4-7.8c0.1-0.5,0.2-1,0.2-1.6
					v-21.8c0-0.6-0.1-1.1-0.3-1.7L181,188.4z M180.5,239.6c-0.1-0.1-0.3,0-0.3,0.1c0,2.8,1.9,5.2,4.7,5.9l0.5,0.1
					c0.5,0.1,0.8-0.5,0.5-0.8L180.5,239.6z"/>
			</g>
			<g id="XMLID_77_">
				<g id="XMLID_101_">
					
						<linearGradient id="XMLID_98_" gradientUnits="userSpaceOnUse" x1="244.6836" y1="184.2296" x2="265.0384" y2="184.2296" gradientTransform="matrix(4.489659e-011 -1 1 4.489659e-011 15.9386 438.4091)">
						<stop  offset="0" style="stop-color:#00B2C0"/>
						<stop  offset="3.304034e-002" style="stop-color:#12B7C4"/>
						<stop  offset="0.1431" style="stop-color:#49C8D2"/>
						<stop  offset="0.2571" style="stop-color:#7AD7DE"/>
						<stop  offset="0.3723" style="stop-color:#A3E3E8"/>
						<stop  offset="0.4894" style="stop-color:#C4EDF0"/>
						<stop  offset="0.6087" style="stop-color:#DEF5F7"/>
						<stop  offset="0.7311" style="stop-color:#F0FBFB"/>
						<stop  offset="0.8588" style="stop-color:#FBFEFE"/>
						<stop  offset="1" style="stop-color:#FFFFFF"/>
					</linearGradient>
					<path id="XMLID_33_" class="st16" d="M219.1,180.6c0,0.5-0.1,1.1-0.2,1.6l-2.5,8.4c-0.5,1.6-1.8,2.8-3.5,3
						c-0.3,0.1-0.7,0.1-1,0l-8.5-0.7c-2.1-0.2-4.3-0.2-6.4,0l-8.5,0.7c-0.3,0-0.7,0-1,0c-1.6-0.2-3-1.4-3.5-3l-2.5-8.4
						c-0.4-1.5-0.3-3.1,0.5-4.4c0.8-1.4,2-2.3,3.5-2.7c0.2-0.1,0.4-0.1,0.7-0.1l6.5-1c5-0.8,10-0.8,15,0l6.5,1
						c0.2,0,0.4,0.1,0.7,0.1c1.5,0.4,2.7,1.4,3.5,2.7C218.8,178.7,219.1,179.6,219.1,180.6z M181.6,180.6c0,0.5,0.1,1,0.2,1.5
						l2.5,8.4c0.4,1.5,1.7,2.6,3.2,2.8c0.3,0,0.6,0.1,0.9,0l8.5-0.7c2.2-0.2,4.3-0.2,6.5,0l8.5,0.7c0.3,0,0.6,0,0.9,0h0
						c1.5-0.2,2.8-1.3,3.2-2.8l2.5-8.4c0.4-1.4,0.2-2.9-0.5-4.2c-0.7-1.3-1.9-2.2-3.3-2.6c-0.2-0.1-0.5-0.1-0.6-0.1l-6.5-1
						c-4.9-0.8-10-0.8-14.9,0l-6.5,1c-0.2,0-0.4,0.1-0.6,0.1c-1.4,0.4-2.6,1.3-3.3,2.6C181.8,178.8,181.6,179.7,181.6,180.6z"/>
				</g>
				<g id="XMLID_97_">
					<path id="XMLID_62_" class="st17" d="M215.9,237.6c0,0.9-0.3,1.8-0.8,2.6c-0.7,1.2-2,2-3.3,2.2l-5.4,0.8
						c-2.1,0.3-4.2,0.5-6.2,0.5c-2.1,0-4.2-0.2-6.2-0.5l-5.4-0.8c-1.4-0.2-2.6-1-3.3-2.2c-0.7-1.2-0.9-2.6-0.6-3.9l2-7
						c0.1-0.5,0.3-0.9,0.6-1.2c0.7-0.9,1.9-1.4,3.1-1.3l7.1,0.6c1.8,0.2,3.6,0.2,5.3,0l7.1-0.6c1.2-0.1,2.3,0.4,3.1,1.3
						c0.3,0.4,0.5,0.8,0.6,1.2l2,7C215.8,236.7,215.9,237.2,215.9,237.6z M184.8,237.6c0,0.8,0.2,1.7,0.7,2.4c0.7,1.1,1.8,1.8,3.1,2
						l5.4,0.8c2.1,0.3,4.1,0.5,6.2,0.5c2.1,0,4.1-0.2,6.2-0.5l5.4-0.8c1.3-0.2,2.4-0.9,3.1-2c0.7-1.1,0.9-2.4,0.5-3.7l-2-7
						c-0.1-0.4-0.3-0.8-0.6-1.1c-0.7-0.9-1.7-1.3-2.8-1.2l-7.1,0.6c-1.8,0.2-3.6,0.2-5.4,0l-7.1-0.6c-1.1-0.1-2.1,0.4-2.8,1.2l0,0
						c-0.3,0.3-0.5,0.7-0.6,1.1l-2,7C184.8,236.8,184.8,237.2,184.8,237.6z"/>
				</g>
				<g id="XMLID_93_">
					
						<linearGradient id="XMLID_99_" gradientUnits="userSpaceOnUse" x1="187.8474" y1="184.2308" x2="287.1077" y2="184.2308" gradientTransform="matrix(4.489659e-011 -1 1 4.489659e-011 15.9386 438.4091)">
						<stop  offset="0" style="stop-color:#00B2C0"/>
						<stop  offset="0.1646" style="stop-color:#41C6D0"/>
						<stop  offset="0.3294" style="stop-color:#7AD7DE"/>
						<stop  offset="0.4892" style="stop-color:#AAE5EA"/>
						<stop  offset="0.6399" style="stop-color:#CFF0F3"/>
						<stop  offset="0.7795" style="stop-color:#E9F8FA"/>
						<stop  offset="0.9037" style="stop-color:#F9FDFE"/>
						<stop  offset="1" style="stop-color:#FFFFFF"/>
					</linearGradient>
					<path id="XMLID_28_" class="st18" d="M223,165.1v73.2c0,4.9-3.4,9.2-8.2,10.3l-2.7,0.6c-3.9,0.9-7.9,1.4-11.9,1.4
						c-4,0-8-0.5-11.9-1.4l-2.7-0.6c-4.8-1.1-8.2-5.3-8.2-10.3v-73.2c0-7.6,6.2-13.8,13.8-13.8h18C216.8,151.3,223,157.5,223,165.1z
						 M178,238.3c0,4.6,3.2,8.6,7.7,9.7l2.7,0.6c3.8,0.9,7.8,1.3,11.8,1.3c4,0,7.9-0.4,11.8-1.3l2.7-0.6c4.5-1,7.7-5,7.7-9.7v-73.2
						c0-7.3-5.9-13.2-13.2-13.2h-18c-7.3,0-13.2,5.9-13.2,13.2V238.3z"/>
				</g>
				<path id="XMLID_27_" class="st17" d="M180.5,239.6c-0.1-0.1-0.2-0.1-0.2,0c-0.1,0.1-0.1,0.1,0,0.2c0,0.2,0,0.4,0.1,0.5
					c0.1,0.3,0.1,0.7,0.2,1c0.2,0.7,0.5,1.3,1,1.8c0.4,0.6,0.9,1,1.5,1.5c0.6,0.4,1.2,0.7,1.9,0.9c-1.4-0.2-2.8-1-3.6-2.2
					c-0.4-0.6-0.8-1.3-0.9-2c-0.1-0.4-0.1-0.7-0.2-1.1c0-0.2,0-0.4,0-0.5c0-0.1,0-0.2,0.1-0.3C180.4,239.5,180.5,239.5,180.5,239.6z
					"/>
				<path id="XMLID_26_" class="st17" d="M220.1,239.7c0.1,1.4-0.3,2.8-1.2,3.8c-0.9,1.1-2.1,1.8-3.5,2c0.6-0.2,1.3-0.5,1.8-0.9
					c0.5-0.4,1-0.8,1.4-1.3C219.5,242.3,220,241.1,220.1,239.7z"/>
				<g id="XMLID_87_">
					<path id="XMLID_61_" class="st8" d="M185.4,202.9v21.8c0,0.5-0.1,1.1-0.2,1.6l-4,7.8c-0.1,0.3-0.3,0.4-0.6,0.4
						c-0.3,0-0.5-0.3-0.5-0.6v-45.5c0-0.3,0.2-0.5,0.5-0.6c0.3,0,0.5,0.1,0.6,0.4l4,12.9C185.3,201.8,185.4,202.3,185.4,202.9z
						 M180.4,234c0,0.2,0.1,0.2,0.2,0.3s0.2,0,0.3-0.2c0,0,0,0,0,0l4-7.8c0.1-0.5,0.2-1,0.2-1.5v-21.8c0-0.5-0.1-1.1-0.2-1.6
						l-4-12.9c0-0.2-0.2-0.2-0.3-0.2c-0.1,0-0.2,0.1-0.2,0.3V234z"/>
				</g>
				<g id="XMLID_82_">
					<path id="XMLID_60_" class="st17" d="M220.3,188.5V234c0,0.3-0.2,0.5-0.5,0.6c-0.3,0-0.5-0.1-0.6-0.4l-4-7.8
						c-0.2-0.6-0.2-7.8-0.2-7.9v-15.6c0-0.6,0.1-1.2,0.3-1.7l3.9-12.8c0.1-0.3,0.3-0.4,0.6-0.4C220.1,188,220.3,188.2,220.3,188.5z
						 M215.3,218.5c0,0.8,0.1,7.3,0.2,7.8l4,7.8c0,0,0,0,0,0c0,0.2,0.2,0.2,0.3,0.2c0.1,0,0.2-0.1,0.2-0.3v-45.5
						c0-0.2-0.1-0.2-0.2-0.3c-0.1,0-0.2,0-0.3,0.2l-3.9,12.9c-0.2,0.5-0.2,1.1-0.2,1.6V218.5z M219.3,234.1L219.3,234.1L219.3,234.1
						z"/>
				</g>
				<path id="XMLID_20_" class="st17" d="M180.2,162.5c-0.1,0.9,0.6,1.6,1.4,1.5c0.8,0,1.6-0.4,2.2-0.9l0.9-0.9
					c0.3-0.3,0.6-0.6,0.9-0.9c0.7-0.5,1.6-0.8,2.4-0.7c-0.8,0.1-1.6,0.4-2.3,0.9c-0.6,0.5-1.2,1.2-1.8,1.8c-0.6,0.6-1.5,1-2.4,0.9
					c-0.4,0-0.9-0.2-1.2-0.5C180.2,163.4,180.1,162.9,180.2,162.5z"/>
				<path id="XMLID_19_" class="st17" d="M190.7,155.5c0-0.5-0.3-1-0.7-1.2c-0.2-0.1-0.4-0.2-0.7-0.2c-0.2,0-0.5,0.1-0.7,0.1
					c-1,0.2-1.9,0.6-2.8,1.1c-0.9,0.5-1.7,1.1-2.4,1.7c-0.7,0.7-1.4,1.5-2,2.3c0.5-0.9,1.1-1.7,1.8-2.5c0.7-0.7,1.6-1.3,2.5-1.8
					c0.9-0.5,1.9-0.8,2.9-1c0.2,0,0.5-0.1,0.8-0.1c0.3,0,0.5,0.1,0.7,0.3C190.5,154.5,190.8,155,190.7,155.5z"/>
				<path id="XMLID_18_" class="st17" d="M218.8,164.2c-1,0.1-2-0.3-2.7-1.1c-0.4-0.3-0.7-0.7-1.1-1c-0.3-0.4-0.7-0.6-1.2-0.8
					c-0.4-0.2-0.9-0.3-1.4-0.4c-0.5,0-1-0.1-1.5-0.3c-0.5-0.2-0.8-0.6-1.1-1.1c-0.2-0.4-0.4-1-0.3-1.5c0.1,1,0.7,1.9,1.5,2.3
					c0.4,0.2,0.9,0.3,1.4,0.3c0.5,0,1,0.2,1.5,0.4c0.5,0.2,0.9,0.6,1.2,0.9c0.3,0.4,0.7,0.7,1,1.1
					C216.9,163.6,217.8,164.1,218.8,164.2z"/>
				<path id="XMLID_17_" class="st17" d="M211.4,154c2.1,0.3,4.2,1.3,5.8,2.8c1.6,1.5,2.7,3.5,3,5.7c-0.3-1-0.7-2-1.2-3
					c-0.5-0.9-1.2-1.8-2-2.5C215.4,155.6,213.5,154.5,211.4,154z"/>
			</g>
			<g id="XMLID_74_">
				
					<radialGradient id="XMLID_100_" cx="48.4064" cy="79.7421" r="5.917" gradientTransform="matrix(-1.1187 1.0263 -1.2399 -1.3516 335.1793 214.7559)" gradientUnits="userSpaceOnUse">
					<stop  offset="0" style="stop-color:#FFFFFF"/>
					<stop  offset="9.439981e-002" style="stop-color:#F9FDFE;stop-opacity:0.9056"/>
					<stop  offset="0.219" style="stop-color:#E8F8F9;stop-opacity:0.781"/>
					<stop  offset="0.3607" style="stop-color:#CDF0F3;stop-opacity:0.6393"/>
					<stop  offset="0.5149" style="stop-color:#A7E4E9;stop-opacity:0.4851"/>
					<stop  offset="0.6793" style="stop-color:#76D5DD;stop-opacity:0.3207"/>
					<stop  offset="0.8494" style="stop-color:#3BC4CE;stop-opacity:0.1506"/>
					<stop  offset="1" style="stop-color:#00B2C0;stop-opacity:0"/>
				</radialGradient>
				<path id="XMLID_16_" class="st19" d="M175.5,162.7c-4.1-4.4-4.4-10.7-0.7-14.1c3.7-3.4,9.9-2.5,14,1.9
					c4.1,4.4,4.4,10.7,0.7,14.1C185.8,168,179.6,167.1,175.5,162.7z"/>
				
					<radialGradient id="XMLID_102_" cx="48.0436" cy="79.2648" r="4.2126" gradientTransform="matrix(-1.1187 1.0263 -1.2399 -1.3516 335.1793 214.7559)" gradientUnits="userSpaceOnUse">
					<stop  offset="0" style="stop-color:#FFFFFF"/>
					<stop  offset="9.439981e-002" style="stop-color:#F9FDFE;stop-opacity:0.9056"/>
					<stop  offset="0.219" style="stop-color:#E8F8F9;stop-opacity:0.781"/>
					<stop  offset="0.3607" style="stop-color:#CDF0F3;stop-opacity:0.6393"/>
					<stop  offset="0.5149" style="stop-color:#A7E4E9;stop-opacity:0.4851"/>
					<stop  offset="0.6793" style="stop-color:#76D5DD;stop-opacity:0.3207"/>
					<stop  offset="0.8494" style="stop-color:#3BC4CE;stop-opacity:0.1506"/>
					<stop  offset="1" style="stop-color:#00B2C0;stop-opacity:0"/>
				</radialGradient>
				<path id="XMLID_15_" class="st20" d="M178.4,161.3c-2.9-3.1-3.1-7.6-0.5-10s7.1-1.8,9.9,1.4c2.9,3.1,3.1,7.6,0.5,10
					C185.8,165,181.3,164.4,178.4,161.3z"/>
			</g>
			<g id="XMLID_71_">
				
					<radialGradient id="XMLID_103_" cx="152.6377" cy="159.1946" r="5.917" gradientTransform="matrix(1.1187 1.0263 1.2399 -1.3516 -150.2799 214.7559)" gradientUnits="userSpaceOnUse">
					<stop  offset="0" style="stop-color:#FFFFFF"/>
					<stop  offset="9.439981e-002" style="stop-color:#F9FDFE;stop-opacity:0.9056"/>
					<stop  offset="0.219" style="stop-color:#E8F8F9;stop-opacity:0.781"/>
					<stop  offset="0.3607" style="stop-color:#CDF0F3;stop-opacity:0.6393"/>
					<stop  offset="0.5149" style="stop-color:#A7E4E9;stop-opacity:0.4851"/>
					<stop  offset="0.6793" style="stop-color:#76D5DD;stop-opacity:0.3207"/>
					<stop  offset="0.8494" style="stop-color:#3BC4CE;stop-opacity:0.1506"/>
					<stop  offset="1" style="stop-color:#00B2C0;stop-opacity:0"/>
				</radialGradient>
				<path id="XMLID_14_" class="st21" d="M224.5,162.3c4.1-4.4,4.4-10.7,0.7-14.1c-3.7-3.4-9.9-2.5-14,1.9
					c-4.1,4.4-4.4,10.7-0.7,14.1C214.2,167.6,220.4,166.7,224.5,162.3z"/>
				
					<radialGradient id="XMLID_104_" cx="152.2748" cy="158.7173" r="4.2126" gradientTransform="matrix(1.1187 1.0263 1.2399 -1.3516 -150.2799 214.7559)" gradientUnits="userSpaceOnUse">
					<stop  offset="0" style="stop-color:#FFFFFF"/>
					<stop  offset="9.439981e-002" style="stop-color:#F9FDFE;stop-opacity:0.9056"/>
					<stop  offset="0.219" style="stop-color:#E8F8F9;stop-opacity:0.781"/>
					<stop  offset="0.3607" style="stop-color:#CDF0F3;stop-opacity:0.6393"/>
					<stop  offset="0.5149" style="stop-color:#A7E4E9;stop-opacity:0.4851"/>
					<stop  offset="0.6793" style="stop-color:#76D5DD;stop-opacity:0.3207"/>
					<stop  offset="0.8494" style="stop-color:#3BC4CE;stop-opacity:0.1506"/>
					<stop  offset="1" style="stop-color:#00B2C0;stop-opacity:0"/>
				</radialGradient>
				<path id="XMLID_12_" class="st22" d="M221.6,160.8c2.9-3.1,3.1-7.6,0.5-10s-7.1-1.8-9.9,1.4c-2.9,3.1-3.1,7.6-0.5,10
					C214.2,164.6,218.7,164,221.6,160.8z"/>
			</g>
			<g id="XMLID_68_">
				
					<radialGradient id="XMLID_106_" cx="-125.0625" cy="405.2122" r="6.9053" gradientTransform="matrix(-0.8668 0.8659 -1.035 -1.0361 493.0508 772.6093)" gradientUnits="userSpaceOnUse">
					<stop  offset="0" style="stop-color:#8C181B"/>
					<stop  offset="1" style="stop-color:#ED1C24;stop-opacity:0"/>
				</radialGradient>
				<path id="XMLID_10_" class="st23" d="M176.1,250.5c-3.9-4-4.5-9.8-1.2-13.1c3.3-3.3,9.2-2.8,13.1,1.2c3.9,4,4.5,9.8,1.2,13.1
					C185.9,254.9,180,254.4,176.1,250.5z"/>
				
					<radialGradient id="XMLID_107_" cx="-125.5846" cy="405.5077" r="5.0582" gradientTransform="matrix(-0.8668 0.8659 -1.035 -1.0361 493.0508 772.6093)" gradientUnits="userSpaceOnUse">
					<stop  offset="0" style="stop-color:#8C181B"/>
					<stop  offset="1" style="stop-color:#ED1C24;stop-opacity:0"/>
				</radialGradient>
				<path id="XMLID_9_" class="st24" d="M177.8,248.1c-2.9-2.9-3.3-7.2-0.9-9.6c2.4-2.4,6.7-2,9.6,0.9c2.9,2.9,3.3,7.2,0.9,9.6
					C185,251.4,180.7,251,177.8,248.1z"/>
			</g>
			<g id="XMLID_65_">
				
					<radialGradient id="XMLID_108_" cx="-1.0851" cy="509.2249" r="6.9053" gradientTransform="matrix(0.8668 0.8659 1.035 -1.0361 -308.1514 772.6093)" gradientUnits="userSpaceOnUse">
					<stop  offset="0" style="stop-color:#8C181B"/>
					<stop  offset="1" style="stop-color:#ED1C24;stop-opacity:0"/>
				</radialGradient>
				<path id="XMLID_8_" class="st25" d="M223.9,250c3.9-4,4.5-9.8,1.2-13.1c-3.3-3.3-9.2-2.8-13.1,1.2c-3.9,4-4.5,9.8-1.2,13.1
					C214.1,254.5,220,254,223.9,250z"/>
				
					<radialGradient id="XMLID_109_" cx="-1.6072" cy="509.5204" r="5.0582" gradientTransform="matrix(0.8668 0.8659 1.035 -1.0361 -308.1514 772.6093)" gradientUnits="userSpaceOnUse">
					<stop  offset="0" style="stop-color:#8C181B"/>
					<stop  offset="1" style="stop-color:#ED1C24;stop-opacity:0"/>
				</radialGradient>
				<path id="XMLID_7_" class="st26" d="M222.2,247.7c2.9-2.9,3.3-7.2,0.9-9.6c-2.4-2.4-6.7-2-9.6,0.9c-2.9,2.9-3.3,7.2-0.9,9.6
					C215,251,219.3,250.6,222.2,247.7z"/>
			</g>
		</g>
		<g id="XMLID_11_">
			<path class="st27" d="M200.6,279c-43.5,0-79-35.4-79-79c0-43.5,35.4-79,79-79s79,35.4,79,79C279.6,243.5,244.2,279,200.6,279z
				 M200.6,122.9c-42.5,0-77.1,34.6-77.1,77.1c0,42.5,34.6,77.1,77.1,77.1c42.5,0,77.1-34.6,77.1-77.1
				C277.8,157.5,243.2,122.9,200.6,122.9z"/>
			<path class="st28" d="M200.6,296.6c-53.3,0-96.6-43.3-96.6-96.6c0-53.3,43.3-96.6,96.6-96.6s96.6,43.3,96.6,96.6
				C297.2,253.3,253.9,296.6,200.6,296.6z M200.6,105.3c-52.2,0-94.7,42.5-94.7,94.7c0,52.2,42.5,94.7,94.7,94.7
				s94.7-42.5,94.7-94.7C295.4,147.8,252.9,105.3,200.6,105.3z"/>
			<g id="XMLID_66_">
				<radialGradient id="XMLID_110_" cx="113.6867" cy="159.4839" r="6.8454" gradientUnits="userSpaceOnUse">
					<stop  offset="0.6129" style="stop-color:#FFF200"/>
					<stop  offset="1" style="stop-color:#F9ED32;stop-opacity:0"/>
				</radialGradient>
				<path id="XMLID_75_" class="st29" d="M104.5,161c-0.2-0.2-0.1-0.6,0.2-0.9c5.1-4.6,12.9-4.5,17.9,0.2c0.3,0.3,0.4,0.7,0.2,0.9
					c-0.4,0.3-0.7,0.7-1.1,1c-0.2,0.2-0.6,0.2-0.8-0.1c-4-3.8-10.3-3.9-14.5-0.2c-0.3,0.2-0.6,0.3-0.8,0.1
					C105.2,161.7,104.9,161.3,104.5,161z"/>
				<radialGradient id="XMLID_111_" cx="113.7296" cy="154.8451" r="9.4032" gradientUnits="userSpaceOnUse">
					<stop  offset="0.6129" style="stop-color:#FFF200"/>
					<stop  offset="1" style="stop-color:#F9ED32;stop-opacity:0"/>
				</radialGradient>
				<path id="XMLID_73_" class="st30" d="M101,157c-0.2-0.2,0-0.7,0.4-1.1c7-6.3,17.8-6.2,24.7,0.3c0.4,0.4,0.6,0.9,0.4,1.1
					c-0.4,0.3-0.7,0.7-1.1,1c-0.2,0.2-0.7,0.1-1.1-0.3c-5.9-5.6-15.2-5.7-21.2-0.2c-0.4,0.3-0.8,0.5-1.1,0.3
					C101.7,157.7,101.4,157.4,101,157z"/>
				<radialGradient id="XMLID_112_" cx="113.7719" cy="150.0322" r="12.6056" gradientUnits="userSpaceOnUse">
					<stop  offset="0.6129" style="stop-color:#FFF200"/>
					<stop  offset="1" style="stop-color:#F9ED32;stop-opacity:0"/>
				</radialGradient>
				<path id="XMLID_72_" class="st31" d="M96.6,153.1c-0.2-0.2,0.1-0.8,0.7-1.4c9.4-8.5,23.8-8.3,33,0.4c0.6,0.5,0.9,1.2,0.6,1.4
					c-0.4,0.3-0.7,0.7-1.1,1c-0.2,0.2-0.8-0.1-1.3-0.5c-8.3-7.8-21.2-7.9-29.6-0.3c-0.5,0.5-1.1,0.7-1.3,0.5
					C97.3,153.8,96.9,153.5,96.6,153.1z"/>
				<radialGradient id="XMLID_113_" cx="113.3966" cy="159.4839" r="6.8454" gradientUnits="userSpaceOnUse">
					<stop  offset="0.6129" style="stop-color:#FFF200"/>
					<stop  offset="1" style="stop-color:#F9ED32;stop-opacity:0"/>
				</radialGradient>
				<path id="XMLID_70_" class="st32" d="M104.3,161c-0.2-0.2-0.1-0.6,0.2-0.9c5.1-4.6,12.9-4.5,17.9,0.2c0.3,0.3,0.4,0.7,0.2,0.9
					c-0.4,0.3-0.7,0.7-1.1,1c-0.2,0.2-0.6,0.2-0.8-0.1c-4-3.8-10.3-3.9-14.5-0.2c-0.3,0.2-0.6,0.3-0.8,0.1
					C105,161.7,104.6,161.3,104.3,161z"/>
				<radialGradient id="XMLID_114_" cx="113.4395" cy="154.8451" r="9.4032" gradientUnits="userSpaceOnUse">
					<stop  offset="0.6129" style="stop-color:#FFF200"/>
					<stop  offset="1" style="stop-color:#F9ED32;stop-opacity:0"/>
				</radialGradient>
				<path id="XMLID_69_" class="st33" d="M100.7,157c-0.2-0.2,0-0.7,0.4-1.1c7-6.3,17.8-6.2,24.7,0.3c0.4,0.4,0.6,0.9,0.4,1.1
					c-0.4,0.3-0.7,0.7-1.1,1c-0.2,0.2-0.7,0.1-1.1-0.3c-5.9-5.6-15.2-5.7-21.2-0.2c-0.4,0.3-0.8,0.5-1.1,0.3
					C101.4,157.7,101.1,157.4,100.7,157z"/>
				<radialGradient id="XMLID_115_" cx="113.4818" cy="150.0322" r="12.6056" gradientUnits="userSpaceOnUse">
					<stop  offset="0.6129" style="stop-color:#FFF200"/>
					<stop  offset="1" style="stop-color:#F9ED32;stop-opacity:0"/>
				</radialGradient>
				<path id="XMLID_67_" class="st34" d="M96.3,153.1c-0.2-0.2,0.1-0.8,0.7-1.4c9.4-8.5,23.8-8.3,33,0.4c0.6,0.5,0.9,1.2,0.6,1.4
					c-0.4,0.3-0.7,0.7-1.1,1c-0.2,0.2-0.8-0.1-1.3-0.5c-8.3-7.8-21.2-7.9-29.6-0.3c-0.5,0.5-1.1,0.7-1.3,0.5
					C97,153.8,96.7,153.5,96.3,153.1z"/>
			</g>
			<radialGradient id="XMLID_116_" cx="295.3872" cy="205.0633" r="10.1396" gradientUnits="userSpaceOnUse">
				<stop  offset="0.4839" style="stop-color:#FFF200"/>
				<stop  offset="1" style="stop-color:#F9ED32;stop-opacity:0"/>
			</radialGradient>
			<path id="XMLID_76_" class="st35" d="M295.4,193.4c-4.6,0-8.4,3.8-8.4,8.4c0,5.7,7.5,14.3,7.8,14.7c0.1,0.2,0.3,0.2,0.5,0.3
				c0.2,0,0.4-0.1,0.5-0.3c0.3-0.4,7.9-9,7.8-14.7C303.7,197.2,300,193.4,295.4,193.4z M295.5,208.1c-6.5,0-6.4-10,0-10
				C302,198.1,302,208.1,295.5,208.1z"/>
		</g>
	</g>
</g>
</svg>
