<?xml version="1.0" standalone="no"?>
<svg
  width="600"
  height="600"
  viewBox="0 0 600 600"
  xmlns="http://www.w3.org/2000/svg"
>
  <g transform="translate(300,300)">
    <path d="M91.1,-106.5C127.7,-98.8,173.7,-85.1,179.1,-60.2C184.5,-35.2,149.3,0.9,126.9,32.4C104.5,63.8,94.9,90.6,75.8,126.9C56.8,163.2,28.4,209.1,-10.6,223.7C-49.6,238.2,-99.1,221.5,-113.7,183.7C-128.3,145.9,-107.9,87.2,-122.1,40.4C-136.3,-6.4,-185.1,-41.2,-184.7,-65.4C-184.2,-89.5,-134.4,-103,-95.4,-110C-56.4,-117,-28.2,-117.5,-0.5,-116.8C27.2,-116.2,54.5,-114.3,91.1,-106.5Z" fill="#eb9723" />
  </g>
</svg>
  